<?xml version="1.0" standalone="no"?>
<!DOCTYPE svg PUBLIC "-//W3C//DTD SVG 20010904//EN"
 "http://www.w3.org/TR/2001/REC-SVG-20010904/DTD/svg10.dtd">
<svg version="1.0" xmlns="http://www.w3.org/2000/svg"
 width="1280.000000pt" height="721.000000pt" viewBox="0 0 1280.000000 721.000000"
 preserveAspectRatio="xMidYMid meet">

<g transform="translate(0.000000,721.000000) scale(0.100000,-0.100000)"
fill="#000000" stroke="none">
<path d="M1785 5553 c-22 -2 -90 -13 -151 -24 -602 -107 -1034 -507 -1131
-1047 -15 -88 -15 -97 1 -168 l18 -75 -37 -56 c-20 -30 -93 -125 -161 -210
-288 -357 -341 -454 -285 -525 27 -33 124 -83 191 -97 63 -13 90 -34 90 -69 0
-42 -31 -136 -56 -169 -14 -18 -27 -46 -30 -63 -6 -27 -1 -36 45 -79 l53 -47
-34 -45 c-52 -68 -52 -71 2 -138 68 -84 71 -111 30 -235 -41 -127 -49 -209
-24 -261 31 -65 110 -133 194 -165 25 -10 116 -15 310 -20 256 -5 278 -7 315
-27 116 -62 179 -223 185 -475 0 -5 439 -8 975 -8 l975 0 0 23 c0 12 -16 101
-34 197 -93 476 -128 862 -90 991 27 89 88 201 212 382 121 179 166 269 221
442 91 284 112 574 60 830 -116 571 -554 969 -1212 1099 -197 39 -456 55 -632
39z m354 -179 c-14 -18 -24 -11 -15 11 3 9 11 13 16 10 8 -5 7 -11 -1 -21z
m-189 7 c0 -17 -15 -19 -35 -5 -18 13 -18 14 8 14 15 0 27 -4 27 -9z m-58 -28
c3 -10 3 -23 1 -30 -7 -20 -31 8 -25 29 6 23 18 23 24 1z m448 6 c27 -6 50
-15 50 -20 0 -21 -45 -59 -70 -59 -27 0 -41 18 -55 68 -7 26 0 27 75 11z
m-385 -18 c15 23 27 -19 13 -43 l-13 -23 -3 23 c-4 24 -10 26 -31 13 -7 -5
-10 -14 -7 -20 4 -6 2 -11 -3 -11 -14 0 -14 11 -1 45 8 22 13 25 24 16 11 -9
16 -9 21 0z m608 -42 c-3 -12 -11 -18 -19 -15 -8 3 -14 1 -14 -4 0 -6 -4 -10
-10 -10 -17 0 -11 38 7 48 24 14 42 4 36 -19z m67 -33 c0 -12 -7 -31 -15 -42
-14 -18 -14 -18 -16 11 -1 17 -3 37 -4 45 -2 24 6 32 21 19 8 -6 14 -21 14
-33z m-833 -23 c11 -9 13 -20 8 -40 -5 -19 -9 -23 -13 -13 -3 8 -11 20 -18 25
-8 6 -11 21 -7 40 4 17 8 24 11 15 2 -8 11 -20 19 -27z m-374 -20 c4 -19 2
-33 -3 -33 -6 0 -10 8 -10 18 0 9 -3 28 -6 42 -5 17 -3 22 3 15 6 -5 13 -25
16 -42z m337 -13 c4 0 11 -7 14 -16 5 -14 4 -15 -8 -5 -11 10 -16 9 -24 -5 -9
-15 -13 -16 -26 -5 -9 7 -13 18 -10 23 4 6 10 5 14 -3 6 -8 11 1 17 27 7 35 8
36 11 12 2 -16 7 -28 12 -28z m443 25 c-5 -13 -23 -22 -23 -11 0 15 14 35 21
31 4 -3 6 -12 2 -20z m357 -2 c-1 -24 -2 -26 -11 -10 -5 9 -7 22 -4 27 10 17
15 11 15 -17z m229 18 c12 -8 12 -13 -3 -35 -25 -39 -37 -35 -50 17 -6 23 -3
27 16 27 13 0 29 -4 37 -9z m-1439 -11 c0 -5 -2 -10 -4 -10 -3 0 -8 5 -11 10
-3 6 -1 10 4 10 6 0 11 -4 11 -10z m35 -30 c-3 -5 -11 -10 -16 -10 -6 0 -7 5
-4 10 3 6 11 10 16 10 6 0 7 -4 4 -10z m552 -31 c3 -27 1 -30 -18 -24 -15 5
-19 4 -15 -4 4 -6 2 -11 -3 -11 -14 0 -14 3 6 45 19 39 25 38 30 -6z m390 1
c-1 -11 -2 -20 -4 -20 -1 0 -7 9 -13 20 -8 16 -8 20 4 20 9 0 14 -8 13 -20z
m-944 -20 c-3 -11 -10 -20 -15 -20 -6 0 -7 7 -4 16 3 9 6 20 6 25 0 6 4 8 9 5
5 -3 7 -15 4 -26z m623 -40 c25 -21 15 -31 -15 -16 -16 9 -31 13 -34 10 -3 -3
2 10 11 29 15 31 17 32 20 11 2 -12 10 -28 18 -34z m939 31 c6 -11 -33 -51
-50 -51 -11 0 -15 12 -15 39 l0 40 30 -11 c17 -5 32 -13 35 -17z m-256 -13 c0
-7 -4 -22 -9 -33 -7 -17 -9 -15 -9 13 -1 17 4 32 9 32 6 0 10 -6 9 -12z
m-1522 -20 c-3 -8 -6 -5 -6 6 -1 11 2 17 5 13 3 -3 4 -12 1 -19z m508 -8 c-3
-5 4 -6 16 -3 17 5 20 2 17 -17 -3 -23 -32 -49 -42 -39 -3 3 -7 14 -9 25 -1
10 -6 24 -10 30 -3 6 -4 14 -1 17 9 8 35 -4 29 -13z m172 -25 c13 -29 6 -33
-12 -8 -11 15 -12 13 -11 -12 0 -15 -5 -30 -11 -32 -9 -3 -13 7 -13 30 0 53
26 66 47 22z m293 6 c0 -6 -4 -13 -10 -16 -5 -3 -10 1 -10 9 0 9 5 16 10 16 6
0 10 -4 10 -9z m636 -28 c-10 -10 -19 5 -10 18 6 11 8 11 12 0 2 -7 1 -15 -2
-18z m-1451 -2 c6 -21 -3 -51 -16 -51 -11 0 -29 34 -29 54 0 22 37 20 45 -3z
m198 -1 c-3 -11 -7 -20 -9 -20 -2 0 -4 9 -4 20 0 11 4 20 9 20 5 0 7 -9 4 -20z
m766 6 c20 -24 10 -70 -16 -74 -21 -3 -23 1 -23 42 0 48 16 60 39 32z m231
-13 c0 -37 -20 -69 -20 -33 0 20 -2 22 -10 10 -8 -12 -10 -10 -10 11 0 29 7
39 27 39 8 0 13 -11 13 -27z m-920 -3 c8 -5 12 -12 9 -15 -8 -8 -39 5 -39 16
0 11 11 11 30 -1z m-576 -45 c3 -8 1 -15 -4 -15 -6 0 -10 7 -10 15 0 8 2 15 4
15 2 0 6 -7 10 -15z m946 -19 c0 -3 -4 -8 -10 -11 -5 -3 -10 -1 -10 4 0 6 5
11 10 11 6 0 10 -2 10 -4z m-544 -39 c-3 -12 -5 -26 -6 -32 -1 -5 -5 1 -9 15
-9 29 -3 53 10 44 5 -3 7 -15 5 -27z m464 -64 c0 -16 -6 -23 -19 -23 -15 0
-18 6 -15 38 2 20 1 31 -2 25 -3 -7 -10 -13 -16 -13 -6 0 -5 6 2 15 12 14 15
14 31 -1 11 -10 19 -28 19 -41z m849 -5 c1 -26 -15 -30 -53 -11 -40 19 -43 28
-20 54 16 18 18 18 45 -4 15 -12 28 -30 28 -39z m-1824 8 c-9 -14 -14 -30 -10
-37 5 -7 1 -10 -11 -7 -11 2 -20 13 -22 25 -3 17 3 24 22 29 14 3 26 14 27 23
0 9 3 11 5 4 3 -6 -2 -23 -11 -37z m55 13 c0 -10 -4 -19 -10 -19 -5 0 -10 12
-10 26 0 14 4 23 10 19 6 -3 10 -15 10 -26z m820 15 c0 -8 -4 -12 -10 -9 -5 3
-10 10 -10 16 0 5 5 9 10 9 6 0 10 -7 10 -16z m-639 -37 c-8 -8 -11 -3 -11 19
1 25 2 27 11 11 8 -14 8 -22 0 -30z m89 27 c0 -8 -4 -12 -10 -9 -5 3 -10 10
-10 16 0 5 5 9 10 9 6 0 10 -7 10 -16z m449 -1 c0 -5 -4 -17 -9 -28 -8 -18 -9
-17 -9 8 -1 15 4 27 9 27 6 0 10 -3 9 -7z m-563 -30 c-2 -28 -19 -43 -33 -31
-26 21 -14 39 28 47 4 0 6 -7 5 -16z m1064 -5 c0 -5 -4 -6 -10 -3 -5 3 -10 1
-10 -4 0 -6 -4 -11 -9 -11 -5 0 -7 9 -4 19 5 19 33 19 33 -1z m-620 -18 c0
-22 -16 -35 -25 -20 -9 14 4 52 16 45 5 -4 9 -15 9 -25z m420 10 c-11 -7 -12
-12 -4 -20 6 -6 9 -22 6 -36 -6 -32 -22 -12 -22 27 0 25 19 53 29 43 3 -3 -1
-9 -9 -14z m420 -1 c-7 -11 -14 -18 -17 -15 -8 8 5 36 17 36 7 0 7 -6 0 -21z
m-50 -26 c0 -26 -3 -34 -11 -26 -9 9 -3 63 7 63 2 0 4 -17 4 -37z m-1370 2 c0
-7 -7 -15 -15 -19 -16 -6 -19 3 -9 28 7 18 24 12 24 -9z m1556 -2 c10 -16 17
-37 16 -48 -1 -20 -27 -45 -46 -45 -6 0 0 7 12 16 27 19 27 60 -1 58 -18 -2
-21 5 -11 30 8 21 9 21 30 -11z m-456 -23 c0 -5 -4 -10 -10 -10 -5 0 -10 5
-10 10 0 6 5 10 10 10 6 0 10 -4 10 -10z m-531 -12 c0 -7 -4 -22 -9 -33 -7
-17 -9 -15 -9 13 -1 17 4 32 9 32 6 0 10 -6 9 -12z m1331 -8 c0 -16 -12 -40
-20 -40 -9 0 -20 47 -13 54 7 7 33 -5 33 -14z m-1423 -22 c-3 -8 -6 -5 -6 6
-1 11 2 17 5 13 3 -3 4 -12 1 -19z m423 7 c0 -6 -9 -11 -20 -12 -11 -1 -20 4
-20 10 0 7 9 13 20 13 11 0 20 -5 20 -11z m-610 -41 c0 -2 -10 2 -23 11 -22
14 -25 13 -50 -13 -15 -16 -27 -41 -29 -60 -1 -17 -4 -32 -6 -32 -11 0 -42 22
-42 31 0 6 4 8 9 5 9 -6 61 55 61 71 0 5 5 14 12 21 8 8 18 6 40 -9 15 -11 28
-22 28 -25z m467 40 c-3 -3 -12 -4 -19 -1 -8 3 -5 6 6 6 11 1 17 -2 13 -5z
m953 -46 c0 -28 -38 -23 -46 6 -3 14 -3 30 1 36 10 16 45 -17 45 -42z m-863
-1 c-6 -19 -22 -6 -25 20 -2 27 -2 27 13 8 8 -10 14 -23 12 -28z m-921 17 c18
-14 18 -14 -6 -3 -31 14 -36 19 -24 19 6 0 19 -7 30 -16z m1216 -11 c-8 -3
-10 -9 -4 -16 8 -11 25 -103 17 -95 -2 2 -13 26 -24 55 -20 51 -17 61 14 61 6
0 4 -2 -3 -5z m-242 -37 c0 -3 -7 -6 -15 -6 -9 0 -15 9 -15 21 0 18 2 19 15 5
8 -8 15 -17 15 -20z m129 2 c12 -31 -4 -58 -35 -58 -30 0 -41 23 -26 56 15 31
50 32 61 2z m-1211 -20 c5 -39 -30 -56 -48 -23 -17 32 -6 57 22 53 16 -2 24
-11 26 -30z m802 12 c8 -5 12 -12 9 -15 -8 -8 -39 5 -39 16 0 11 11 11 30 -1z
m1337 -31 c-4 -29 -1 -42 9 -46 8 -3 14 -9 14 -14 0 -10 -41 10 -52 26 -11 14
-10 47 1 41 5 -3 11 3 14 14 9 36 20 21 14 -21z m43 2 c0 -17 5 -33 10 -36 8
-5 7 -11 -1 -21 -10 -13 -14 -10 -26 17 -13 32 -10 69 8 69 5 0 9 -13 9 -29z
m-1442 7 c14 -14 16 -38 4 -38 -5 0 -14 11 -20 25 -12 26 -4 33 16 13z m182
-24 c0 -22 -2 -23 -27 -12 -16 7 -29 13 -31 14 -1 0 0 8 3 16 10 25 55 10 55
-18z m510 0 c0 -13 -2 -24 -4 -24 -2 0 -11 -3 -19 -6 -13 -5 -14 0 -5 30 12
39 28 39 28 0z m-433 -12 c1 -32 0 -33 -7 -12 -11 33 -12 50 -2 50 4 0 8 -17
9 -38z m1358 7 c4 -11 4 -23 1 -26 -3 -4 -6 -1 -6 5 0 6 -7 18 -16 26 -13 14
-13 16 0 16 8 0 18 -9 21 -21z m-1803 -14 c-2 -11 -5 -33 -7 -48 -4 -35 -15
-48 -15 -19 0 12 -5 22 -11 22 -6 0 -8 -9 -4 -20 4 -11 2 -20 -4 -20 -14 0
-14 37 -1 45 18 11 11 35 -7 28 -15 -6 -16 -4 -6 9 7 8 9 18 5 22 -4 4 7 6 23
4 24 -2 29 -7 27 -23z m-442 -24 c-12 -24 -32 -29 -24 -6 4 8 10 15 15 15 5 0
9 8 10 18 0 9 3 12 5 5 3 -7 0 -21 -6 -32z m37 -22 c-13 -39 -15 -41 -26 -22
-8 17 -7 22 5 27 9 3 14 13 11 20 -3 8 -1 17 6 19 19 7 19 2 4 -44z m518 37
c16 7 29 -12 21 -32 -9 -23 -46 1 -45 29 0 12 3 17 5 10 3 -7 11 -10 19 -7z
m67 -28 c-14 -15 -22 -18 -22 -9 0 15 32 43 39 35 3 -3 -5 -14 -17 -26z m1763
12 c3 -5 12 -7 20 -3 9 3 15 -1 15 -11 0 -9 -4 -16 -10 -16 -5 0 -10 -7 -10
-16 0 -23 -25 -44 -54 -44 -23 0 -26 4 -26 34 0 19 3 41 6 50 7 17 49 22 59 6z
m-595 -20 c0 -13 -11 -13 -30 0 -12 8 -11 10 8 10 12 0 22 -4 22 -10z m-1007
-30 c10 0 17 -5 15 -12 -5 -16 -48 -24 -48 -10 0 6 -3 19 -6 29 -6 15 -4 16 7
6 7 -7 21 -13 32 -13z m287 10 c0 -13 -40 -22 -81 -18 -34 4 -34 4 -9 15 31
15 90 16 90 3z m30 0 c0 -5 -4 -10 -10 -10 -5 0 -10 5 -10 10 0 6 5 10 10 10
6 0 10 -4 10 -10z m827 -12 c-3 -8 -6 -5 -6 6 -1 11 2 17 5 13 3 -3 4 -12 1
-19z m-2048 -47 c0 -20 -3 -30 -6 -23 -4 10 -8 8 -18 -5 -19 -25 -31 -9 -17
22 7 14 12 35 12 47 0 17 2 18 15 8 9 -7 15 -28 14 -49z m269 8 c-38 -25 -53
9 -15 36 21 15 22 14 25 -6 2 -12 -2 -26 -10 -30z m1223 35 c-18 -8 -36 -13
-39 -10 -6 7 37 25 58 25 8 -1 0 -7 -19 -15z m-455 -41 c-11 -11 -17 4 -9 23
7 18 8 18 11 1 2 -10 1 -21 -2 -24z m1308 -5 c-3 -5 -14 -8 -25 -8 -21 0 -25
20 -7 38 9 9 14 7 24 -6 7 -9 10 -20 8 -24z m-1484 22 c0 -5 -4 -10 -10 -10
-5 0 -10 5 -10 10 0 6 5 10 10 10 6 0 10 -4 10 -10z m490 -26 c0 -13 -4 -24
-10 -24 -5 0 -10 14 -10 31 0 17 4 28 10 24 6 -3 10 -17 10 -31z m180 15 c0
-6 -4 -7 -10 -4 -5 3 -10 11 -10 16 0 6 5 7 10 4 6 -3 10 -11 10 -16z m-270
-9 c0 -21 -15 -27 -25 -10 -7 12 2 30 16 30 5 0 9 -9 9 -20z m-820 -13 c0 -19
-21 -37 -42 -37 -13 0 -18 8 -18 25 0 21 5 25 30 25 18 0 30 -5 30 -13z m1660
3 c0 -5 -4 -10 -10 -10 -5 0 -10 5 -10 10 0 6 5 10 10 10 6 0 10 -4 10 -10z
m-403 -12 c11 -14 27 -88 19 -88 -10 0 -66 55 -66 65 0 12 20 35 31 35 4 0 11
-6 16 -12z m-663 -24 c30 -11 15 -94 -16 -94 -5 0 -8 23 -7 50 1 28 3 50 5 50
1 0 9 -3 18 -6z m1116 -4 c12 -8 11 -10 -7 -10 -12 0 -24 -8 -26 -17 -3 -10
-4 -6 -4 10 1 28 12 33 37 17z m-1150 -10 c0 -5 -2 -10 -4 -10 -3 0 -8 5 -11
10 -3 6 -1 10 4 10 6 0 11 -4 11 -10z m200 -5 c6 -8 9 -18 6 -24 -3 -5 0 -11
6 -14 15 -5 -14 -42 -44 -58 -16 -9 -18 -4 -18 51 0 52 2 60 19 60 10 0 24 -7
31 -15z m-610 -5 c0 -5 -2 -10 -4 -10 -3 0 -8 5 -11 10 -3 6 -1 10 4 10 6 0
11 -4 11 -10z m227 -11 c7 -7 10 -26 7 -43 -2 -17 -2 -25 2 -18 7 14 24 16 24
3 0 -5 -9 -12 -19 -16 -12 -4 -18 -12 -14 -21 4 -10 -3 -14 -28 -14 -59 0 -96
61 -44 74 13 3 29 15 35 26 12 23 21 25 37 9z m-326 -36 c-9 -16 -10 -14 -11
12 0 21 3 26 11 18 8 -8 8 -16 0 -30z m439 16 c0 -11 -4 -18 -10 -14 -5 3 -7
12 -3 20 7 21 13 19 13 -6z m1502 -25 c-6 -35 -12 -29 -12 14 0 23 3 32 9 24
4 -7 6 -24 3 -38z m117 25 c12 -7 6 -9 -21 -4 l-38 6 0 -37 c0 -47 -6 -41 -13
13 l-5 43 31 -5 c17 -3 37 -10 46 -16z m-1139 7 c0 -4 -59 -36 -67 -36 -1 0
-3 7 -3 16 0 10 6 14 15 10 8 -3 15 -1 15 4 0 6 9 10 20 10 11 0 20 -2 20 -4z
m-1390 -36 c0 -5 -4 -10 -10 -10 -5 0 -10 5 -10 10 0 6 5 10 10 10 6 0 10 -4
10 -10z m380 -12 c0 -19 -2 -20 -10 -8 -13 19 -13 30 0 30 6 0 10 -10 10 -22z
m1110 18 c0 -3 -4 -8 -10 -11 -5 -3 -10 -1 -10 4 0 6 5 11 10 11 6 0 10 -2 10
-4z m848 -28 c33 -38 51 -78 27 -58 -12 10 -16 9 -21 -4 -10 -27 -23 -18 -46
30 -19 39 -20 46 -8 54 20 13 18 14 48 -22z m-2234 -5 c0 -16 -4 -27 -7 -25
-4 1 -11 2 -17 2 -14 0 -13 23 2 38 18 18 24 15 22 -15z m1743 21 c-3 -3 -12
-4 -19 -1 -8 3 -5 6 6 6 11 1 17 -2 13 -5z m819 -80 c-10 -27 -43 -16 -50 17
-10 51 -7 58 22 61 24 3 27 0 30 -31 2 -18 1 -39 -2 -47z m-2128 56 c-7 -10
-14 -17 -17 -15 -4 4 18 35 25 35 2 0 -1 -9 -8 -20z m-73 1 c3 -5 1 -12 -5
-16 -5 -3 -10 1 -10 9 0 18 6 21 15 7z m1725 -20 c0 -11 -4 -23 -10 -26 -6 -4
-10 5 -10 19 0 14 5 26 10 26 6 0 10 -9 10 -19z m-1904 1 c17 -11 26 -49 14
-57 -5 -3 -10 -1 -10 5 0 6 -5 8 -10 5 -6 -4 -8 -15 -5 -25 3 -10 1 -21 -5
-25 -9 -6 -15 16 -10 40 1 5 2 22 2 37 1 29 5 33 24 20z m1844 -2 c0 -5 -5
-10 -11 -10 -5 0 -7 5 -4 10 3 6 8 10 11 10 2 0 4 -4 4 -10z m-1880 -13 c0
-14 -20 -37 -32 -37 -13 0 -9 38 5 43 21 9 27 7 27 -6z m992 -32 c3 -13 3 -27
0 -30 -12 -11 -60 -4 -66 10 -9 26 5 45 34 45 22 0 29 -5 32 -25z m419 -12
c-8 -15 -10 -15 -11 -2 0 17 10 32 18 25 2 -3 -1 -13 -7 -23z m-1001 3 c0 -2
-7 -7 -16 -10 -8 -3 -12 -2 -9 4 6 10 25 14 25 6z m307 -18 c-3 -8 -6 -5 -6 6
-1 11 2 17 5 13 3 -3 4 -12 1 -19z m403 -25 c11 3 21 0 24 -7 2 -6 5 4 5 22 1
34 15 43 25 15 7 -17 -20 -81 -38 -95 -14 -9 -46 10 -46 28 0 8 -8 27 -17 41
-10 15 -12 24 -5 19 7 -4 15 0 20 11 6 15 8 13 10 -10 3 -23 8 -28 22 -24z
m187 10 c-9 -21 -13 -23 -15 -9 -5 24 6 49 18 41 6 -3 5 -16 -3 -32z m323 33
c0 -3 -4 -8 -10 -11 -5 -3 -10 -1 -10 4 0 6 5 11 10 11 6 0 10 -2 10 -4z
m-1024 -15 c-3 -4 0 -22 7 -40 10 -27 9 -33 -3 -41 -20 -12 -38 6 -23 21 7 7
9 25 6 40 -3 19 -1 29 6 29 7 0 10 -4 7 -9z m171 -53 c-2 -13 -4 -5 -4 17 -1
22 1 32 4 23 2 -10 2 -28 0 -40z m503 40 c0 -7 -7 -22 -15 -32 -14 -19 -15
-19 -15 5 0 14 3 29 7 32 10 11 23 8 23 -5z m-1058 -27 c-2 -17 -12 -37 -22
-46 -16 -14 -19 -14 -41 5 -15 13 -20 23 -12 26 6 3 21 14 34 25 32 28 46 24
41 -10z m675 -28 c-26 -26 -47 -24 -47 4 0 25 31 43 54 31 18 -10 17 -11 -7
-35z m1116 5 c3 -21 2 -38 -4 -38 -5 0 -9 19 -9 42 0 49 5 47 13 -4z m423 7
c0 -19 -3 -35 -7 -35 -8 0 -19 52 -12 62 10 18 19 6 19 -27z m-943 -37 c-2 -5
-8 -8 -14 -8 -11 0 -12 33 -2 44 8 8 23 -25 16 -36z m257 11 c12 -16 21 -31
19 -33 -22 -16 -55 -36 -61 -36 -5 0 -8 20 -8 43 0 66 16 75 50 26z m-1390
-18 c0 -22 -4 -43 -10 -46 -6 -4 -7 5 -4 23 4 17 1 32 -5 36 -16 10 -13 26 4
26 11 0 15 -11 15 -39z m115 29 c-3 -5 1 -10 9 -10 17 0 16 -52 -2 -58 -6 -2
-8 5 -5 18 4 16 2 19 -11 14 -11 -4 -16 0 -16 14 0 17 8 26 28 31 2 1 0 -3 -3
-9z m-509 -57 c-10 -10 -19 5 -10 18 6 11 8 11 12 0 2 -7 1 -15 -2 -18z m294
-3 c0 -5 -2 -10 -4 -10 -3 0 -8 5 -11 10 -3 6 -1 10 4 10 6 0 11 -4 11 -10z
m790 -12 c0 -46 -12 -68 -35 -68 -14 0 -25 7 -28 20 -3 13 0 20 9 20 8 0 14 6
14 13 0 8 4 7 10 -3 8 -13 10 -12 11 5 1 11 1 23 0 28 0 4 4 7 9 7 6 0 10 -10
10 -22z m340 13 c0 -6 -4 -13 -10 -16 -5 -3 -10 -19 -10 -36 0 -16 -4 -29 -10
-29 -5 0 -10 9 -10 20 0 11 -5 19 -11 18 -6 -2 -14 4 -16 12 -4 12 -3 12 5 1
8 -10 13 -8 28 13 19 26 34 33 34 17z m650 -21 c0 -10 -4 -22 -10 -25 -6 -4
-10 7 -10 25 0 18 4 29 10 25 6 -3 10 -15 10 -25z m-1380 -6 c0 -8 -4 -12 -10
-9 -5 3 -10 10 -10 16 0 5 5 9 10 9 6 0 10 -7 10 -16z m155 -4 c-3 -11 -2 -20
4 -20 5 0 11 10 13 23 2 13 7 0 12 -31 4 -29 6 -55 3 -58 -2 -3 -17 -2 -33 2
l-27 7 23 19 c12 10 20 22 16 25 -4 4 -11 1 -16 -7 -7 -11 -11 -11 -24 -1 -19
16 -21 37 -4 47 7 5 9 2 4 -7 -4 -8 -1 -6 6 4 17 23 31 22 23 -3z m1282 -12
c-3 -7 -5 -2 -5 12 0 14 2 19 5 13 2 -7 2 -19 0 -25z m-869 -12 c21 -28 19
-78 -5 -98 -12 -10 -20 -6 -44 21 -33 38 -36 57 -12 83 22 24 38 23 61 -6z
m992 -22 c0 -14 -8 -24 -22 -28 -36 -9 -38 -8 -38 21 0 14 3 23 7 20 3 -4 13
3 21 14 12 17 16 18 23 8 5 -8 9 -24 9 -35z m-1966 -20 c15 -25 27 -47 25 -48
-7 -6 -68 -36 -74 -36 -7 0 -6 115 2 123 11 12 17 7 47 -39z m1391 -7 c-1 -12
-4 -29 -7 -37 -4 -8 -8 -22 -11 -30 -2 -8 -5 11 -5 42 -1 42 2 56 11 52 7 -2
12 -15 12 -27z m-1261 -25 c6 -50 -6 -56 -21 -9 -7 22 -6 36 1 43 14 15 14 16
20 -34z m1589 21 c-1 -6 4 -17 12 -23 8 -7 15 -22 15 -34 0 -17 2 -18 10 -6 5
8 10 10 10 4 0 -6 -6 -17 -14 -23 -12 -10 -17 -8 -26 8 -6 11 -23 27 -38 35
-23 13 -18 22 11 17 4 0 7 6 7 15 0 8 -4 12 -10 9 -5 -3 -10 -1 -10 5 0 6 8
10 18 8 9 -2 16 -9 15 -15z m377 -4 c0 -6 -4 -7 -10 -4 -5 3 -10 11 -10 16 0
6 5 7 10 4 6 -3 10 -11 10 -16z m-750 -40 c0 -11 -4 -17 -10 -14 -5 3 -10 15
-10 26 0 11 5 17 10 14 6 -3 10 -15 10 -26z m240 13 c0 -13 -12 -22 -22 -16
-10 6 -1 24 13 24 5 0 9 -4 9 -8z m-1233 -24 c-3 -8 -6 -5 -6 6 -1 11 2 17 5
13 3 -3 4 -12 1 -19z m127 -13 c-4 -8 -8 -15 -10 -15 -2 0 -4 7 -4 15 0 8 4
15 10 15 5 0 7 -7 4 -15z m1703 -11 c-9 -9 -28 6 -21 18 4 6 10 6 17 -1 6 -6
8 -13 4 -17z m-1479 -16 c12 -46 5 -58 -34 -58 -27 0 -34 4 -34 19 0 11 -2 25
-5 33 -5 12 26 34 52 37 7 0 16 -14 21 -31z m1261 19 c6 -8 8 -17 4 -20 -3 -4
0 -14 8 -23 12 -15 12 -17 -1 -12 -8 2 -19 14 -25 26 -5 12 -13 22 -17 22 -5
0 -8 5 -8 10 0 15 26 12 39 -3z m-1339 -35 c0 -15 -11 -21 -27 -15 -12 5 -12
7 -1 14 17 11 28 11 28 1z m1258 -20 c17 -22 15 -34 -11 -73 -31 -46 -70 -48
-75 -4 -2 17 -11 38 -19 47 -14 15 -12 19 18 37 36 22 66 20 87 -7z m-1868 1
c0 -23 -17 -49 -26 -41 -9 10 4 58 16 58 6 0 10 -8 10 -17z m200 7 c12 -8 12
-10 -5 -10 -11 0 -27 5 -35 10 -12 8 -12 10 5 10 11 0 27 -5 35 -10z m-143
-22 c-3 -8 -6 -5 -6 6 -1 11 2 17 5 13 3 -3 4 -12 1 -19z m372 8 c9 -11 6 -18
-19 -36 -39 -28 -46 -22 -23 19 20 35 26 37 42 17z m661 -6 c0 -3 -3 -15 -6
-28 -6 -19 -11 -22 -33 -17 -34 8 -45 20 -38 39 5 11 17 15 42 14 19 -2 35 -5
35 -8z m431 -68 c-8 -15 -11 -14 -20 11 -8 21 -8 34 1 50 11 21 12 21 20 -11
5 -19 5 -39 -1 -50z m102 69 c13 -1 4 -44 -10 -48 -7 -3 -10 5 -9 21 3 22 1
24 -15 15 -15 -7 -19 -6 -19 6 0 10 7 14 23 11 12 -3 26 -5 30 -5z m-1395 -23
c-8 -12 -21 -24 -29 -26 -8 -3 -3 7 10 22 30 32 39 34 19 4z m369 16 c-3 -3
-12 -4 -19 -1 -8 3 -5 6 6 6 11 1 17 -2 13 -5z m308 -28 c21 8 25 -9 13 -55
-9 -34 -14 -42 -32 -39 -27 4 -32 39 -14 92 10 32 14 36 16 19 2 -13 8 -20 17
-17z m505 2 c23 6 -22 -24 -46 -32 -18 -5 -22 -2 -26 19 -7 35 21 52 42 26 9
-9 22 -16 30 -13z m-1383 -4 c-3 -3 -12 -4 -19 -1 -8 3 -5 6 6 6 11 1 17 -2
13 -5z m771 -6 c15 -15 16 -102 1 -93 -6 4 -8 14 -4 23 3 9 3 13 -1 9 -9 -9
-44 21 -44 38 0 12 20 35 30 35 3 0 11 -5 18 -12z m869 -53 c-8 -24 -16 -34
-21 -27 -6 11 23 76 31 68 2 -1 -3 -20 -10 -41z m-1117 14 c0 -5 -4 -9 -10 -9
-5 0 -10 7 -10 16 0 8 5 12 10 9 6 -3 10 -10 10 -16z m658 0 c2 -9 -9 -24 -23
-33 -14 -9 -23 -22 -19 -27 4 -7 -1 -9 -12 -7 -14 3 -18 11 -17 33 1 16 4 34
7 41 7 18 60 12 64 -7z m19 -21 c-3 -7 -5 -2 -5 12 0 14 2 19 5 13 2 -7 2 -19
0 -25z m888 14 c-3 -3 -11 0 -18 7 -9 10 -8 11 6 5 10 -3 15 -9 12 -12z
m-1815 -37 c0 -12 -7 -25 -15 -29 -16 -6 -20 18 -9 48 8 22 24 10 24 -19z
m390 -7 c0 -18 -2 -20 -9 -8 -6 8 -7 18 -5 22 9 14 14 9 14 -14z m360 8 c0 -7
-7 -27 -15 -42 -12 -24 -15 -26 -16 -9 -1 11 0 25 1 30 1 6 3 16 3 23 0 17 27
15 27 -2z m306 -9 c8 3 14 -1 14 -11 0 -9 -4 -16 -8 -16 -12 0 -32 22 -31 35
0 5 3 5 5 -2 3 -7 12 -9 20 -6z m136 -46 c2 -36 0 -47 -10 -44 -8 4 -10 -1 -5
-13 6 -17 5 -17 -10 -5 -20 16 -22 3 -4 -20 7 -9 18 -14 26 -11 8 3 11 0 7 -7
-19 -30 -55 8 -58 59 -1 14 -8 32 -15 41 -12 15 -10 19 14 37 38 27 51 19 55
-37z m-152 10 c0 -6 -4 -11 -10 -11 -5 0 -10 4 -10 9 0 5 -3 18 -7 28 -6 17
-6 17 10 1 9 -9 17 -21 17 -27z m577 7 c-3 -7 -5 -2 -5 12 0 14 2 19 5 13 2
-7 2 -19 0 -25z m-670 0 c-3 -8 -6 -5 -6 6 -1 11 2 17 5 13 3 -3 4 -12 1 -19z
m542 -10 c-2 -13 1 -29 5 -37 7 -11 5 -13 -6 -8 -22 8 -29 -2 -17 -25 9 -18 8
-18 -10 -8 -18 9 -21 8 -21 -7 0 -14 -3 -14 -21 5 -27 30 -21 51 20 79 43 29
53 29 50 1z m-809 -8 c0 -11 -2 -20 -4 -20 -2 0 -6 9 -9 20 -3 11 -1 20 4 20
5 0 9 -9 9 -20z m67 -2 c-3 -8 -6 -5 -6 6 -1 11 2 17 5 13 3 -3 4 -12 1 -19z
m-157 2 c8 -5 11 -10 6 -10 -6 0 -2 -6 8 -13 15 -11 16 -18 4 -60 -9 -34 -17
-47 -30 -47 -12 0 -18 7 -18 21 0 11 -7 27 -15 35 -11 11 -15 12 -15 3 0 -7
-6 -5 -14 6 -18 25 -6 58 25 66 34 10 32 10 49 -1z m475 -10 c3 -5 1 -10 -4
-10 -6 0 -11 5 -11 10 0 6 2 10 4 10 3 0 8 -4 11 -10z m-840 -10 c-3 -6 -20
-17 -37 -26 -25 -13 -32 -14 -39 -2 -6 9 1 16 29 25 48 15 55 15 47 3z m799
-46 c8 -3 12 -12 10 -19 -3 -7 0 -23 6 -35 10 -19 9 -20 -14 -16 -37 7 -46 14
-46 40 0 34 12 42 44 30z m-190 -65 c-3 -5 -10 -7 -15 -3 -5 3 -7 10 -3 15 3
5 10 7 15 3 5 -3 7 -10 3 -15z m483 -16 c-3 -10 -5 -4 -5 12 0 17 2 24 5 18 2
-7 2 -21 0 -30z m-567 -39 c0 -7 -5 -16 -11 -20 -8 -5 -10 1 -7 20 3 14 1 29
-3 32 -5 3 -9 13 -9 22 0 11 6 6 15 -12 8 -15 15 -34 15 -42z m194 0 c9 -24 7
-31 -9 -38 -11 -4 -15 2 -15 24 0 32 14 40 24 14z m146 7 c0 -5 -7 -12 -16
-15 -14 -5 -15 -4 -4 9 14 17 20 19 20 6z m-520 -42 c0 -27 -2 -30 -15 -19 -9
7 -14 19 -11 26 3 7 0 15 -7 18 -7 2 -2 5 11 5 18 1 22 -4 22 -30z m580 3 c0
-15 -2 -15 -10 -2 -13 20 -13 33 0 25 6 -3 10 -14 10 -23z m-123 -24 c-3 -7
-5 -2 -5 12 0 14 2 19 5 13 2 -7 2 -19 0 -25z m93 -7 c5 7 12 10 16 6 8 -7
-14 -37 -27 -37 -5 0 -8 12 -8 28 1 19 3 21 6 8 4 -15 7 -16 13 -5z m330 5 c0
-3 -4 -8 -10 -11 -5 -3 -10 -1 -10 4 0 6 5 11 10 11 6 0 10 -2 10 -4z m-87
-37 c-3 -10 0 -19 6 -19 15 0 14 -53 -1 -68 -7 -7 -22 -12 -34 -12 -18 0 -21
4 -16 22 3 14 2 19 -6 14 -8 -5 -12 1 -12 17 0 14 7 28 16 31 9 3 14 13 11 20
-3 8 -1 17 6 19 21 7 35 -4 30 -24z m-210 -101 c8 -57 -36 -80 -67 -36 -21 30
-20 41 7 54 40 21 54 16 60 -18z m-236 -10 c-3 -7 -5 -2 -5 12 0 14 2 19 5 13
2 -7 2 -19 0 -25z m-128 -56 c-2 -23 -2 -24 -6 -5 -3 13 -10 20 -18 17 -7 -3
-16 -1 -20 5 -3 7 0 8 9 5 9 -3 16 -1 16 6 0 6 5 8 10 5 6 -3 9 -18 9 -33z
m61 -132 c0 -11 -7 -20 -15 -20 -8 0 -15 9 -15 20 0 11 7 20 15 20 8 0 15 -9
15 -20z"/>
<path d="M2302 5318 c7 -20 48 -23 48 -4 0 11 -9 16 -26 16 -16 0 -24 -5 -22
-12z"/>
<path d="M1977 4693 c-12 -11 -8 -23 8 -23 8 0 15 7 15 15 0 16 -12 20 -23 8z"/>
<path d="M2920 4639 c0 -5 5 -7 10 -4 6 3 10 8 10 11 0 2 -4 4 -10 4 -5 0 -10
-5 -10 -11z"/>
<path d="M1971 4364 c0 -11 3 -14 6 -6 3 7 2 16 -1 19 -3 4 -6 -2 -5 -13z"/>
<path d="M1535 4361 c-3 -5 -1 -12 4 -15 5 -3 11 1 15 9 6 16 -9 21 -19 6z"/>
<path d="M1565 4341 c-3 -5 -1 -12 5 -16 5 -3 10 1 10 9 0 18 -6 21 -15 7z"/>
<path d="M2277 4023 c-4 -3 -7 -13 -7 -21 0 -12 3 -12 15 -2 8 7 15 16 15 21
0 11 -14 12 -23 2z"/>
<path d="M3170 3810 c0 -5 5 -10 10 -10 6 0 10 5 10 10 0 6 -4 10 -10 10 -5 0
-10 -4 -10 -10z"/>
<path d="M3136 3802 c-3 -6 -1 -14 5 -17 15 -10 25 3 12 16 -7 7 -13 7 -17 1z"/>
<path d="M4205 4521 c-85 -17 -141 -56 -178 -125 -22 -41 -22 -43 -25 -684
l-3 -642 178 2 178 3 0 713 c0 392 -2 718 -6 724 -9 14 -92 19 -144 9z"/>
<path d="M9812 4353 l3 -178 323 -3 c177 -1 322 -5 322 -8 0 -5 -196 -227
-512 -582 l-138 -154 -1 -147 c0 -80 -2 -157 -3 -169 -6 -54 -13 -54 498 -50
l471 3 45 25 c28 16 55 43 75 74 28 47 30 55 30 150 l0 101 -332 3 c-183 1
-333 6 -333 10 1 10 69 90 320 371 124 139 231 262 237 274 13 23 19 410 7
441 -5 14 -60 16 -510 16 l-504 0 2 -177z"/>
<path d="M4500 3620 l0 -550 43 0 c23 0 98 -2 166 -5 85 -4 128 -2 137 6 11 9
14 77 14 375 l0 364 75 0 75 0 0 -369 0 -369 23 -6 c43 -11 312 -7 325 6 9 9
12 106 12 375 l0 363 75 0 75 0 0 -370 0 -369 33 -6 c17 -3 95 -5 172 -3 l140
3 0 425 c0 423 0 425 -23 472 -37 74 -96 134 -170 170 -64 32 -71 33 -210 36
-126 3 -151 1 -210 -18 l-67 -22 -62 21 c-57 19 -84 21 -343 21 l-280 0 0
-550z"/>
<path d="M6245 4152 c-35 -11 -67 -33 -107 -73 -87 -86 -90 -100 -86 -486 3
-308 4 -319 26 -360 35 -66 79 -110 140 -140 l57 -28 299 -3 c165 -2 314 -1
333 3 l33 6 -2 547 -3 547 -320 2 c-274 2 -327 0 -370 -15z m335 -537 l0 -195
-85 0 -85 0 0 195 0 195 85 0 85 0 0 -195z"/>
<path d="M7325 4146 c-99 -46 -153 -113 -175 -216 -8 -37 -11 -149 -8 -345 3
-288 3 -290 29 -345 33 -70 79 -117 149 -149 50 -23 69 -25 200 -28 l145 -2 3
-101 3 -100 -263 -2 -263 -3 0 -55 c0 -109 66 -214 170 -268 49 -26 54 -27
240 -27 165 0 197 3 244 20 73 27 162 109 198 183 l28 57 3 703 3 702 -328 0
c-323 0 -329 -1 -378 -24z m343 -529 l2 -198 -82 3 -83 3 -3 192 c-3 219 -12
201 98 199 l65 -1 3 -198z"/>
<path d="M8319 4142 c-64 -33 -112 -104 -123 -178 -3 -26 -6 -237 -6 -470 l0
-423 33 -6 c17 -3 97 -5 177 -3 l145 3 3 553 2 552 -89 0 c-78 0 -95 -3 -142
-28z"/>
<path d="M8687 4164 c-4 -4 -7 -251 -7 -550 0 -485 2 -542 16 -548 20 -8 308
-8 328 0 14 5 16 48 16 375 l0 369 150 0 150 0 0 -369 0 -369 23 -6 c33 -9
310 -7 325 3 10 6 12 92 10 422 l-3 414 -33 67 c-37 77 -90 128 -172 167 l-55
26 -370 3 c-204 2 -374 0 -378 -4z"/>
<path d="M11235 4150 c-74 -29 -120 -72 -157 -148 l-33 -67 0 -320 c0 -306 1
-322 21 -366 30 -65 86 -123 147 -153 l51 -26 333 0 333 0 0 550 0 550 -322
-1 c-294 0 -327 -2 -373 -19z m335 -535 l0 -196 -82 3 -83 3 -3 193 -2 192 85
0 85 0 0 -195z"/>
<path d="M12235 4151 c-49 -23 -97 -69 -121 -119 -18 -34 -19 -69 -19 -497 l0
-460 160 -5 c88 -3 168 -4 178 -2 16 4 17 39 17 553 l0 549 -87 0 c-64 0 -99
-5 -128 -19z"/>
<path d="M3828 2380 c-7 -11 -20 -20 -29 -20 -22 0 -34 -31 -17 -42 10 -6 9
-12 -6 -23 -11 -8 -20 -23 -21 -32 -7 -50 -19 -83 -31 -83 -15 0 -19 -26 -5
-32 14 -5 -7 -48 -24 -48 -8 0 -15 -9 -15 -20 0 -16 7 -20 31 -20 22 0 32 5
36 20 3 11 11 20 18 20 7 0 15 7 18 14 4 10 24 16 59 18 51 3 52 4 26 15 -16
7 -28 17 -28 22 0 5 -8 11 -19 14 -17 4 -18 8 -7 51 7 28 21 53 35 63 22 15
23 15 17 -4 -4 -12 -1 -25 8 -32 16 -13 31 -66 27 -93 -1 -12 4 -18 17 -18 21
0 39 -42 22 -48 -21 -8 11 -42 39 -42 26 0 28 3 26 38 -3 51 -3 50 -22 54 -12
2 -18 13 -19 33 -1 41 -6 55 -26 76 -10 10 -15 25 -12 33 3 8 -3 19 -14 25
-26 14 -36 42 -20 53 10 6 10 10 -2 18 -24 16 -49 12 -62 -10z"/>
<path d="M4355 2385 c-22 -8 -32 -14 -22 -14 25 -1 23 -41 -3 -41 -11 0 -20
-4 -20 -10 0 -5 6 -10 14 -10 17 0 34 -112 18 -118 -6 -2 -8 -18 -5 -39 4 -24
2 -38 -8 -44 -12 -8 -12 -11 1 -19 13 -8 12 -10 -3 -10 -10 0 -15 -4 -12 -10
9 -14 169 -12 218 2 60 18 91 50 84 88 -4 17 -2 30 3 30 11 0 13 62 4 98 -4
13 -14 22 -25 22 -11 0 -19 5 -19 10 0 6 9 10 20 10 11 0 20 4 20 8 0 16 -25
32 -49 32 -18 0 -22 3 -13 9 36 22 -137 27 -203 6z m179 -70 c35 -15 36 -17
36 -69 0 -34 -5 -56 -12 -59 -10 -3 -10 -7 -1 -17 8 -9 9 -19 2 -32 -8 -15
-21 -18 -87 -16 -68 1 -72 2 -32 8 43 7 43 7 10 8 -36 2 -86 42 -62 50 7 2 12
25 12 57 0 45 -3 55 -20 60 -11 3 -20 11 -20 16 0 15 134 10 174 -6z"/>
<path d="M4850 2380 c-6 -11 -19 -20 -29 -20 -23 0 -36 -30 -19 -42 10 -7 10
-11 -3 -21 -9 -6 -19 -29 -23 -51 -4 -21 -19 -49 -32 -61 -22 -20 -23 -25 -9
-32 19 -11 11 -39 -16 -54 -31 -16 -23 -39 12 -39 22 0 32 5 36 20 3 11 11 20
18 20 7 0 15 5 17 11 2 6 26 12 53 13 29 0 50 6 53 14 2 7 -5 12 -17 12 -12 0
-21 6 -21 14 0 8 -10 16 -22 18 -15 2 -21 9 -19 18 2 8 6 29 9 47 2 20 14 38
29 48 24 16 25 16 19 -3 -4 -11 -2 -23 4 -27 17 -11 39 -72 33 -94 -4 -16 -1
-21 16 -21 21 0 22 -4 25 -60 1 -19 7 -26 28 -28 15 -2 35 1 45 7 17 10 17 10
1 11 -10 0 -18 5 -18 10 0 6 4 10 9 10 17 0 -2 42 -22 49 -16 6 -21 18 -23 48
-1 26 -10 49 -22 61 -13 13 -19 28 -15 41 4 15 1 21 -10 21 -9 0 -21 9 -27 19
-14 26 -13 31 6 31 14 0 14 3 4 15 -18 21 -57 19 -70 -5z"/>
<path d="M5114 2389 c-3 -6 0 -15 7 -20 11 -8 10 -12 -6 -25 -18 -13 -18 -16
-4 -24 13 -7 16 -27 15 -102 -1 -61 3 -97 11 -106 7 -7 17 -20 22 -30 7 -13
29 -17 111 -20 56 -3 105 0 110 4 4 5 4 19 -1 32 -8 21 -14 22 -105 22 -95 0
-96 0 -90 23 3 12 6 27 6 34 0 6 8 14 18 16 16 4 16 5 0 6 -14 1 -18 10 -18
35 0 19 -5 38 -10 41 -19 12 1 25 36 25 21 0 33 4 29 10 -3 6 -20 10 -37 10
-26 0 -30 3 -25 21 10 38 -49 80 -69 48z"/>
<path d="M5444 2389 c-3 -6 0 -15 7 -20 11 -8 10 -12 -6 -25 -18 -13 -18 -16
-4 -24 13 -7 16 -27 15 -102 -1 -73 2 -96 15 -109 9 -9 18 -22 21 -30 5 -15
204 -27 218 -13 4 5 4 19 -1 32 -8 21 -14 22 -98 22 -49 0 -92 3 -94 8 -10 15
6 61 22 65 14 4 14 5 -1 6 -14 1 -18 10 -18 35 0 19 -5 38 -10 41 -19 12 1 25
36 25 21 0 33 4 29 10 -3 6 -20 10 -36 10 -25 0 -29 3 -24 19 12 37 -51 81
-71 50z"/>
<path d="M6015 2391 c-3 -5 5 -12 17 -14 19 -3 17 -5 -7 -6 -29 -2 -29 -2 -11
-16 15 -12 50 -15 145 -14 69 0 120 3 114 6 -21 8 -15 23 10 23 15 1 10 5 -18
15 -45 17 -240 21 -250 6z"/>
<path d="M6693 2390 c-13 -5 -23 -14 -23 -19 0 -5 -17 -11 -37 -13 -43 -3 -60
-34 -23 -40 28 -4 30 -22 3 -26 -20 -3 -23 -9 -23 -48 0 -28 7 -55 19 -72 29
-40 36 -72 17 -72 -9 0 -16 -4 -16 -9 0 -18 64 -31 147 -31 76 0 85 2 90 20 3
11 12 20 20 20 8 0 11 5 8 10 -3 6 -44 10 -90 10 -73 0 -86 3 -95 19 -5 11
-16 25 -23 33 -8 7 -16 37 -20 66 -6 50 -5 52 18 52 29 0 34 26 8 33 -10 3 18
5 63 6 123 2 192 46 98 63 -54 9 -115 9 -141 -2z"/>
<path d="M6932 2393 c-10 -4 -10 -9 3 -23 15 -17 15 -19 -4 -25 -24 -7 -27
-20 -7 -28 9 -4 12 -14 9 -25 -2 -11 0 -23 6 -26 12 -8 15 -49 5 -59 -4 -3 -8
-22 -9 -42 -1 -28 5 -43 28 -68 29 -31 31 -32 135 -35 96 -4 104 -3 99 13 -4
9 -7 23 -7 31 0 11 -20 14 -94 14 -52 0 -97 3 -99 8 -10 15 6 62 21 62 14 0
14 1 0 13 -9 6 -18 31 -22 55 l-6 42 35 0 c19 0 35 5 35 10 0 6 -16 10 -36 10
-31 0 -35 2 -29 21 11 35 -27 67 -63 52z"/>
<path d="M7370 2393 c-32 -10 -101 -47 -107 -57 -4 -5 -1 -12 5 -14 13 -4 17
-72 4 -72 -4 0 -6 -29 -5 -65 1 -58 5 -69 32 -97 l30 -31 100 5 c55 3 106 10
113 16 8 6 15 23 16 38 1 15 7 33 12 39 7 9 7 27 1 54 -5 24 -5 41 0 41 17 0
10 59 -8 69 -11 6 -18 21 -18 37 0 21 -6 30 -25 35 -29 8 -128 10 -150 2z
m124 -73 c20 -7 26 -16 26 -40 0 -16 -4 -30 -10 -30 -15 0 -12 -58 3 -63 9 -3
8 -11 -5 -33 -16 -27 -21 -29 -91 -32 -75 -3 -75 -3 -90 28 -9 17 -11 32 -6
36 5 3 9 16 9 30 0 13 4 24 8 24 5 0 6 20 2 45 l-7 45 68 0 c37 0 79 -4 93
-10z"/>
<path d="M7671 2386 c-37 -13 -54 -36 -27 -36 21 0 20 -16 -1 -29 -17 -10 -17
-12 0 -25 17 -14 24 -72 8 -78 -4 -1 -11 -20 -15 -40 -5 -30 -4 -38 7 -38 23
0 30 -33 11 -47 -16 -12 -17 -13 -1 -13 9 0 17 -4 17 -10 0 -5 11 -10 25 -10
26 0 34 15 13 23 -10 4 -10 6 0 6 15 1 17 81 2 81 -5 0 -10 9 -10 20 0 11 5
20 10 20 6 0 10 18 10 40 0 22 4 40 10 40 10 0 43 -56 47 -80 1 -8 4 -24 7
-35 2 -11 5 -23 5 -27 1 -5 10 -8 20 -8 11 0 27 -10 36 -22 15 -22 14 -23 -6
-26 -20 -3 -20 -4 -2 -17 23 -18 80 -19 90 -2 4 8 16 16 26 20 24 9 22 38 -4
44 -17 5 -19 11 -13 37 3 17 10 33 15 34 5 2 9 24 9 48 0 33 -4 44 -16 44 -23
0 -11 24 14 28 27 4 19 22 -9 22 -23 0 -25 16 -3 28 28 16 -4 25 -36 10 -29
-12 -42 -38 -19 -38 6 0 9 -6 6 -12 -2 -7 -15 -13 -28 -13 -34 0 -31 -29 4
-33 24 -3 27 -8 27 -38 0 -19 -4 -34 -10 -34 -5 0 -10 -10 -10 -22 0 -20 -18
-62 -21 -48 0 3 -3 14 -5 25 -3 11 -6 27 -7 36 -4 33 -42 89 -60 89 -15 0 -18
5 -13 24 5 19 1 25 -15 29 -14 4 -20 11 -16 21 3 8 -1 17 -9 20 -19 7 -21 7
-63 -8z"/>
<path d="M8035 2391 c-3 -5 5 -12 17 -14 l23 -4 -22 -2 c-26 -1 -30 -16 -7
-25 9 -3 70 -6 137 -5 67 0 116 3 110 6 -21 8 -15 23 10 24 20 1 20 2 2 6 -11
3 -24 9 -29 14 -13 12 -233 12 -241 0z"/>
<path d="M8620 2389 c0 -5 9 -9 21 -9 11 0 17 -4 14 -10 -3 -5 -17 -10 -31
-10 -20 0 -24 -5 -24 -30 0 -19 5 -29 12 -27 14 2 19 -91 6 -100 -20 -12 -6
-33 22 -33 23 0 30 4 30 20 0 12 7 20 18 20 11 0 13 3 6 8 -7 4 -11 30 -11 60
l1 52 76 0 c65 0 77 -3 88 -21 21 -33 -1 -49 -64 -49 -53 0 -54 0 -54 -30 0
-29 1 -30 49 -30 41 0 51 -4 56 -20 4 -11 12 -20 18 -19 24 3 37 -1 37 -11 0
-5 -10 -10 -23 -10 -13 0 -27 -3 -31 -7 -11 -11 -166 -14 -166 -3 0 6 11 10
25 10 14 0 25 5 25 10 0 13 -35 13 -58 1 -9 -5 -25 -12 -34 -15 -10 -3 -18
-12 -18 -20 0 -8 8 -17 18 -19 12 -3 9 -5 -7 -6 -20 -1 -22 -4 -13 -13 19 -19
264 -25 260 -7 -2 7 8 16 22 20 14 4 19 7 13 8 -18 1 -16 30 2 37 20 8 19 24
0 24 -13 0 -15 9 -10 53 4 28 6 72 5 96 0 26 5 48 12 52 10 7 10 11 0 21 -15
15 -292 22 -292 7z"/>
<path d="M8975 2390 c-3 -5 3 -10 14 -10 23 0 41 -22 23 -28 -20 -6 -14 -32 7
-32 25 0 38 -20 21 -30 -17 -10 -6 -39 17 -46 10 -3 24 -8 32 -10 11 -4 10 -8
-5 -19 -19 -14 -18 -14 2 -15 20 0 44 -17 44 -32 0 -4 -7 -8 -15 -8 -8 0 -15
-9 -15 -20 0 -11 5 -20 10 -20 6 0 10 -7 10 -15 0 -8 -7 -15 -15 -15 -23 0
-18 -17 8 -24 48 -13 62 -7 64 24 1 17 -2 30 -7 30 -6 0 -10 11 -10 25 0 18 5
25 19 25 28 0 36 30 8 31 -17 1 -16 3 7 8 31 6 48 31 22 31 -19 0 -20 5 -6 31
6 10 19 19 30 19 24 0 37 20 20 30 -17 10 -4 30 21 30 10 0 19 6 19 14 0 18
-55 40 -77 31 -17 -8 -17 -8 0 -12 24 -6 16 -27 -10 -31 -26 -4 -37 -28 -17
-36 20 -8 8 -26 -16 -26 -11 0 -27 -11 -36 -25 -20 -31 -30 -31 -45 -3 -9 16
-9 23 0 26 21 7 12 39 -10 38 -12 -1 -24 5 -26 12 -3 6 2 12 11 12 10 0 13 6
10 15 -4 8 -17 15 -29 15 -13 0 -27 5 -30 10 -3 6 -15 10 -25 10 -10 0 -22 -4
-25 -10z"/>
<path d="M9610 2392 c0 -6 8 -8 19 -5 23 6 38 -15 17 -23 -9 -3 -16 -17 -16
-30 0 -15 -6 -24 -15 -24 -19 0 -19 -14 -1 -30 8 -6 13 -17 11 -23 -2 -7 -6
-40 -8 -74 -5 -58 -3 -63 25 -90 27 -26 35 -28 129 -31 93 -4 99 -3 99 16 0
27 -18 32 -111 32 -67 0 -81 3 -86 18 -4 9 -11 20 -17 24 -6 4 -6 11 2 20 13
16 14 118 1 118 -5 0 -9 5 -9 10 0 6 7 10 15 10 8 0 15 9 15 20 0 20 5 21 87
18 111 -4 123 -23 19 -31 -88 -6 -100 -11 -86 -36 5 -10 5 -22 1 -27 -4 -5 -4
-28 1 -51 l9 -43 60 0 c59 0 96 12 111 34 11 17 9 96 -2 96 -5 0 -10 5 -10 10
0 6 7 10 15 10 10 0 15 10 15 34 0 32 -2 34 -42 40 -83 13 -248 18 -248 8z
m277 -38 c-3 -3 -12 -4 -19 -1 -8 3 -5 6 6 6 11 1 17 -2 13 -5z m-44 -81 c3
-5 2 -23 0 -40 -5 -32 -7 -33 -49 -33 -50 0 -64 16 -46 56 10 19 19 24 51 24
22 0 42 -3 44 -7z"/>
<path d="M9975 2390 c-10 -16 4 -30 31 -30 32 0 52 -44 30 -66 -8 -8 -22 -14
-30 -14 -13 0 -14 -5 -5 -27 5 -16 16 -33 23 -38 7 -6 16 -20 20 -33 6 -16 3
-22 -8 -22 -9 0 -16 -4 -16 -10 0 -5 16 -10 36 -10 19 0 33 4 29 9 -3 5 0 13
6 17 9 5 10 1 7 -14 -7 -25 9 -48 37 -55 11 -3 0 -5 -24 -6 -55 -1 -44 -17 19
-25 25 -3 39 -3 32 0 -20 9 -3 24 26 24 22 0 28 5 30 24 1 21 -3 25 -31 28
l-32 4 27 11 c25 11 46 48 34 60 -11 12 25 62 54 75 33 14 51 55 31 67 -6 4
-9 15 -5 24 5 14 0 17 -23 17 -28 0 -53 -15 -53 -32 0 -4 12 -8 26 -8 22 0 24
-3 19 -22 -9 -30 -44 -57 -73 -58 -17 0 -26 -9 -33 -30 -9 -25 -16 -30 -43
-30 -25 0 -35 6 -44 25 -15 32 -15 35 -1 35 6 0 17 7 26 16 25 24 2 64 -37 64
-23 0 -30 4 -30 20 0 15 -7 20 -24 20 -14 0 -28 -4 -31 -10z m173 -202 c-4
-29 -34 -36 -41 -9 -6 24 0 31 25 31 14 0 19 -6 16 -22z"/>
<path d="M10470 2386 c-61 -24 -90 -41 -90 -53 0 -7 5 -13 10 -13 6 0 10 -16
10 -35 0 -19 -4 -35 -9 -35 -4 0 -6 -11 -3 -25 2 -14 -1 -31 -7 -39 -8 -10 -9
-16 -1 -21 5 -3 10 -15 10 -26 0 -12 12 -34 27 -50 26 -27 33 -29 103 -29 41
0 92 5 112 10 32 9 38 16 44 48 4 20 9 40 11 45 7 12 12 129 6 144 -3 7 -11
13 -19 13 -10 0 -13 10 -12 32 3 26 -1 33 -22 39 -41 12 -133 9 -170 -5z m144
-66 c20 -7 26 -16 26 -40 0 -20 -5 -30 -15 -30 -12 0 -14 -7 -9 -27 4 -16 12
-31 18 -35 8 -5 6 -16 -6 -35 -16 -26 -22 -28 -91 -31 -70 -3 -75 -1 -91 22
-15 23 -15 30 -1 68 18 53 19 105 3 111 -24 10 141 7 166 -3z"/>
<path d="M10786 2378 c-11 -12 -15 -23 -9 -25 12 -4 5 -53 -8 -53 -5 0 -9 -4
-9 -10 0 -5 7 -10 15 -10 9 0 15 -9 15 -25 0 -15 -6 -25 -14 -25 -11 0 -12
-10 -5 -46 5 -25 6 -51 3 -56 -4 -6 0 -14 7 -19 12 -8 12 -10 0 -18 -7 -5 -10
-14 -7 -20 10 -16 56 -14 56 3 0 8 6 17 13 19 8 4 9 8 1 14 -5 4 -11 32 -12
61 -2 39 2 52 12 52 17 0 9 40 -11 55 -11 8 -11 15 -1 37 7 15 20 29 28 32 8
2 5 4 -7 5 -24 1 -31 17 -11 23 16 6 0 28 -20 28 -10 0 -26 -10 -36 -22z"/>
<path d="M10960 2390 c-8 -5 -26 -10 -40 -11 -24 -2 -24 -2 -2 -6 32 -6 30
-43 -3 -43 -14 0 -25 -4 -25 -10 0 -5 8 -10 19 -10 15 0 20 -10 25 -51 4 -30
3 -56 -3 -62 -5 -5 -7 -25 -4 -44 4 -24 2 -38 -8 -44 -12 -8 -12 -11 1 -19 13
-8 12 -10 -3 -10 -10 0 -15 -4 -12 -10 9 -14 175 -13 216 2 19 6 47 21 62 32
24 18 28 26 24 54 -3 17 -2 32 4 32 5 0 9 14 9 30 0 17 -4 30 -9 30 -4 0 -6
12 -3 26 3 20 0 26 -17 31 -27 7 -27 23 -1 23 18 0 19 3 10 20 -6 12 -21 20
-36 20 -14 0 -23 4 -20 9 13 20 -155 30 -184 11z m164 -75 c35 -15 36 -17 36
-70 0 -30 -4 -55 -9 -55 -5 0 -8 -15 -7 -32 l1 -33 -80 -1 c-65 -1 -71 0 -35
6 43 7 43 7 10 8 -36 2 -86 42 -62 50 7 2 12 25 12 57 0 45 -3 55 -20 60 -11
3 -20 11 -20 16 0 15 134 10 174 -6z"/>
<path d="M11938 2387 c-34 -13 -35 -20 -3 -41 17 -11 49 -16 112 -17 88 0 88
0 55 -16 -17 -9 -31 -23 -30 -31 3 -17 -14 -28 -56 -37 -23 -5 -26 -9 -16 -15
12 -7 11 -10 -5 -15 -64 -20 -102 -58 -75 -75 12 -8 11 -10 -7 -10 -14 0 -23
-6 -23 -15 0 -9 9 -15 21 -15 13 0 23 -8 26 -21 6 -20 11 -20 129 -17 67 2
126 7 131 11 4 5 -3 17 -17 27 -20 16 -43 20 -120 21 -66 1 -86 4 -65 9 21 5
24 8 10 9 -17 1 -13 7 20 36 22 19 49 36 60 37 11 2 19 9 18 16 -2 6 9 14 25
18 49 10 53 14 48 31 -7 21 3 37 27 46 26 10 21 27 -8 27 -16 0 -25 6 -25 15
0 8 6 15 13 15 8 0 7 4 -3 10 -20 13 -208 11 -242 -3z"/>
<path d="M12415 2380 c-10 -11 -26 -20 -37 -20 -21 0 -26 -36 -5 -43 8 -3 6
-11 -9 -25 -12 -11 -24 -38 -28 -61 -4 -25 -13 -44 -26 -51 -23 -13 -26 -30
-5 -30 12 0 13 -4 3 -25 -6 -14 -17 -25 -25 -25 -7 0 -13 -9 -13 -20 0 -14 7
-20 24 -20 37 0 61 11 45 21 -10 6 -9 10 6 15 11 4 23 12 27 18 4 6 26 11 49
11 25 0 44 5 46 13 3 6 -3 12 -11 12 -9 0 -19 7 -22 15 -4 8 -15 15 -26 15
-16 0 -19 4 -14 23 4 12 9 37 13 55 3 17 12 32 19 32 8 0 14 5 14 10 0 6 5 10
11 10 6 0 8 -7 5 -16 -4 -9 0 -24 7 -33 19 -22 38 -81 26 -81 -18 0 -8 -21 15
-29 27 -11 42 -41 24 -52 -19 -12 11 -41 40 -37 19 2 26 10 28 28 4 38 -5 60
-25 60 -24 0 -33 11 -21 25 11 13 -11 78 -30 90 -6 4 -8 16 -5 27 5 14 1 21
-13 25 -25 6 -49 53 -27 53 20 0 19 16 -1 24 -26 10 -40 7 -59 -14z"/>
<path d="M12703 2381 c-27 -22 -29 -31 -8 -31 14 0 14 -4 -1 -32 -15 -28 -15
-32 0 -40 20 -11 21 -48 2 -48 -10 0 -12 -9 -6 -42 5 -24 6 -62 4 -85 -3 -40
-2 -43 21 -43 40 0 49 37 29 122 -5 20 -2 29 10 34 20 8 21 43 2 58 -22 16 -9
64 18 69 17 3 15 5 -6 6 -29 1 -40 21 -13 21 20 0 19 16 -1 24 -22 9 -26 8
-51 -13z"/>
<path d="M9133 2373 c9 -2 23 -2 30 0 6 3 -1 5 -18 5 -16 0 -22 -2 -12 -5z"/>
<path d="M5792 2240 c25 -40 154 -41 146 -1 -3 13 -19 17 -81 19 -76 3 -77 2
-65 -18z"/>
<path d="M6049 2255 c-1 -3 -3 -9 -4 -15 -1 -5 -3 -11 -5 -12 -1 -2 -3 -13 -4
-25 -2 -15 3 -23 13 -24 12 0 11 -3 -4 -9 -19 -9 -19 -9 3 -16 25 -7 30 -24 6
-24 -25 0 -12 -33 16 -41 14 -4 18 -8 10 -8 -13 -1 -13 -2 0 -11 19 -12 200
-13 200 -1 0 5 8 12 18 14 16 4 16 5 0 6 -11 1 -18 9 -18 21 0 18 -7 20 -55
20 -81 0 -132 18 -132 47 0 22 2 23 97 23 85 0 98 2 102 18 9 34 -16 42 -132
42 -60 0 -111 -2 -111 -5z"/>
<path d="M8074 2249 c-16 -26 -14 -68 4 -72 16 -4 16 -5 0 -6 -22 -1 -24 -21
-3 -21 8 0 15 -4 15 -10 0 -5 -7 -10 -16 -10 -25 0 -12 -33 16 -41 14 -4 18
-8 10 -9 -11 -1 -9 -4 5 -10 35 -15 188 -11 209 5 11 8 14 15 8 15 -7 0 -12 9
-12 20 0 18 -7 20 -64 20 -81 0 -136 21 -129 50 5 18 13 20 98 20 83 0 93 2
98 19 2 11 0 24 -6 30 -15 15 -224 15 -233 0z"/>
<path d="M6153 2173 c15 -2 39 -2 55 0 15 2 2 4 -28 4 -30 0 -43 -2 -27 -4z"/>
<path d="M8193 2173 c15 -2 37 -2 50 0 12 2 0 4 -28 4 -27 0 -38 -2 -22 -4z"/>
<path d="M9718 2123 c7 -3 16 -2 19 1 4 3 -2 6 -13 5 -11 0 -14 -3 -6 -6z"/>
<path d="M11437 2084 c-3 -3 -38 -7 -78 -10 -83 -6 -95 -10 -78 -30 8 -10 39
-14 119 -14 102 0 108 1 103 19 -5 19 -56 45 -66 35z"/>
<path d="M11679 2079 c-89 -7 -105 -14 -88 -35 9 -10 39 -14 121 -14 96 0 109
2 104 16 -3 9 -6 21 -6 26 0 6 -3 9 -6 5 -3 -3 -16 -2 -28 2 -11 4 -55 4 -97
0z"/>
</g>
</svg>
